<svg width="20" height="20" viewBox="0 0 20 20" fill="none" xmlns="http://www.w3.org/2000/svg">
<path d="M0 3.40909C0 2.50494 0.359171 1.63783 0.9985 0.9985C1.63783 0.359171 2.50494 0 3.40909 0H16.5909C17.4951 0 18.3622 0.359171 19.0015 0.9985C19.6408 1.63783 20 2.50494 20 3.40909V10.9091H14.3182C13.414 10.9091 12.5469 11.2683 11.9076 11.9076C11.2683 12.5469 10.9091 13.414 10.9091 14.3182V20H3.40909C2.50494 20 1.63783 19.6408 0.9985 19.0015C0.359171 18.3622 0 17.4951 0 16.5909V3.40909ZM12.2727 20H12.3273L20 12.3273V12.2727H14.3182C13.7757 12.2727 13.2554 12.4882 12.8718 12.8718C12.4882 13.2554 12.2727 13.7757 12.2727 14.3182V20Z" fill="white"/>
</svg>
