<svg width="80" height="16" viewBox="0 0 80 16" fill="none" xmlns="http://www.w3.org/2000/svg">
<path d="M5.95723 16C4.81677 16 3.79036 15.7652 2.87799 15.2956C1.97904 14.8126 1.27463 14.1484 0.76478 13.3031C0.254927 12.4579 0 11.4985 0 10.4252C0 9.35178 0.254927 8.39245 0.76478 7.54717C1.27463 6.70189 1.97904 6.04444 2.87799 5.57484C3.79036 5.09182 4.81677 4.85032 5.95723 4.85032C7.09769 4.85032 8.1174 5.09182 9.01635 5.57484C9.9153 6.04444 10.6197 6.70189 11.1296 7.54717C11.6394 8.39245 11.8943 9.35178 11.8943 10.4252C11.8943 11.4985 11.6394 12.4579 11.1296 13.3031C10.6197 14.1484 9.9153 14.8126 9.01635 15.2956C8.1174 15.7652 7.09769 16 5.95723 16ZM5.95723 13.4239C6.76226 13.4239 7.41971 13.1556 7.92956 12.6189C8.45283 12.0688 8.71447 11.3375 8.71447 10.4252C8.71447 9.51279 8.45283 8.78826 7.92956 8.25157C7.41971 7.70147 6.76226 7.42642 5.95723 7.42642C5.1522 7.42642 4.48805 7.70147 3.96478 8.25157C3.44151 8.78826 3.17987 9.51279 3.17987 10.4252C3.17987 11.3375 3.44151 12.0688 3.96478 12.6189C4.48805 13.1556 5.1522 13.4239 5.95723 13.4239Z" fill="white"/>
<path d="M20.5741 4.85032C21.9158 4.85032 22.9959 5.25283 23.8143 6.05786C24.6462 6.86289 25.0621 8.05702 25.0621 9.64025V15.839H21.9225V10.1233C21.9225 9.26457 21.7346 8.62725 21.359 8.21132C20.9833 7.78197 20.4399 7.5673 19.7288 7.5673C18.9372 7.5673 18.3065 7.81551 17.8369 8.31195C17.3673 8.79497 17.1325 9.5195 17.1325 10.4855V15.839H13.9929V5.01132H16.9917V6.27925C17.4076 5.82306 17.9242 5.47421 18.5414 5.2327C19.1585 4.97778 19.8361 4.85032 20.5741 4.85032Z" fill="white"/>
<path d="M29.0954 16C28.5453 16 28.0824 15.8122 27.7068 15.4365C27.3311 15.0608 27.1432 14.5912 27.1432 14.0277C27.1432 13.4507 27.3311 12.9878 27.7068 12.639C28.0824 12.2767 28.5453 12.0956 29.0954 12.0956C29.6455 12.0956 30.1084 12.2767 30.4841 12.639C30.8598 12.9878 31.0476 13.4507 31.0476 14.0277C31.0476 14.5912 30.8598 15.0608 30.4841 15.4365C30.1084 15.8122 29.6455 16 29.0954 16Z" fill="white"/>
<path d="M40.0803 15.3157C39.7717 15.5438 39.3894 15.7182 38.9332 15.839C38.4904 15.9463 38.0208 16 37.5244 16C36.2363 16 35.2367 15.6713 34.5256 15.0138C33.8279 14.3564 33.4791 13.3904 33.4791 12.1157V7.66792H31.8086V5.25283H33.4791V2.61635H36.6187V5.25283H39.3156V7.66792H36.6187V12.0755C36.6187 12.5317 36.7328 12.8872 36.9608 13.1421C37.2024 13.3836 37.5378 13.5044 37.9671 13.5044C38.4636 13.5044 38.8862 13.3702 39.2351 13.1019L40.0803 15.3157Z" fill="white"/>
<path d="M41.8428 5.01132H44.9824V15.839H41.8428V5.01132ZM43.4126 3.50189C42.8356 3.50189 42.366 3.33417 42.0038 2.99874C41.6415 2.66331 41.4604 2.24738 41.4604 1.75094C41.4604 1.25451 41.6415 0.838575 42.0038 0.503145C42.366 0.167715 42.8356 0 43.4126 0C43.9895 0 44.4591 0.161007 44.8214 0.48302C45.1836 0.805032 45.3648 1.20755 45.3648 1.69057C45.3648 2.21384 45.1836 2.6499 44.8214 2.99874C44.4591 3.33417 43.9895 3.50189 43.4126 3.50189Z" fill="white"/>
<path d="M61.7629 4.85032C63.118 4.85032 64.1914 5.25283 64.983 6.05786C65.788 6.84948 66.1906 8.04361 66.1906 9.64025V15.839H63.0509V10.1233C63.0509 9.26457 62.8698 8.62725 62.5075 8.21132C62.1587 7.78197 61.6555 7.5673 60.9981 7.5673C60.2602 7.5673 59.6765 7.8088 59.2472 8.29182C58.8178 8.76143 58.6031 9.46583 58.6031 10.405V15.839H55.4635V10.1233C55.4635 8.41929 54.7792 7.5673 53.4107 7.5673C52.6862 7.5673 52.1092 7.8088 51.6799 8.29182C51.2505 8.76143 51.0358 9.46583 51.0358 10.405V15.839H47.8962V5.01132H50.895V6.25912C51.2975 5.80293 51.7872 5.45409 52.3641 5.21258C52.9545 4.97107 53.5985 4.85032 54.2962 4.85032C55.061 4.85032 55.752 5.00461 56.3692 5.31321C56.9864 5.60839 57.4828 6.04444 57.8585 6.62138C58.3013 6.05786 58.8581 5.6218 59.5289 5.31321C60.2132 5.00461 60.9579 4.85032 61.7629 4.85032Z" fill="white"/>
<path d="M79.7289 10.4654C79.7289 10.5057 79.7088 10.7874 79.6685 11.3107H71.4774C71.6249 11.9816 71.9738 12.5115 72.5239 12.9006C73.074 13.2897 73.7583 13.4843 74.5767 13.4843C75.1402 13.4843 75.6367 13.4038 76.066 13.2428C76.5088 13.0683 76.918 12.8 77.2937 12.4377L78.9641 14.2491C77.9444 15.4164 76.4551 16 74.4962 16C73.2753 16 72.1952 15.7652 71.256 15.2956C70.3168 14.8126 69.5922 14.1484 69.0824 13.3031C68.5725 12.4579 68.3176 11.4985 68.3176 10.4252C68.3176 9.3652 68.5658 8.41258 69.0623 7.5673C69.5721 6.7086 70.2631 6.04444 71.1352 5.57484C72.0207 5.09182 73.0069 4.85032 74.0937 4.85032C75.1537 4.85032 76.113 5.07841 76.9717 5.53459C77.8304 5.99078 78.5012 6.64822 78.9843 7.50692C79.4807 8.3522 79.7289 9.33836 79.7289 10.4654ZM74.1138 7.22516C73.4027 7.22516 72.8057 7.42641 72.3226 7.82893C71.8396 8.23145 71.5444 8.78155 71.4371 9.47925H76.7704C76.6631 8.79497 76.3679 8.25157 75.8849 7.84906C75.4019 7.43312 74.8115 7.22516 74.1138 7.22516Z" fill="white"/>
</svg>
